<svg width="24" height="24" viewBox="0 0 24 24" fill="none" xmlns="http://www.w3.org/2000/svg">
<path d="M13.0589 21C11.5972 21 10.305 20.7994 9.18234 20.3981C8.05973 20.0016 7.11626 19.4164 6.35193 18.6425C5.5876 17.8686 5.00957 16.9204 4.61785 15.7978C4.22613 14.6752 4.03027 13.3901 4.03027 11.9427C4.03027 10.543 4.22852 9.2914 4.62502 8.1879C5.02629 7.0844 5.60671 6.14809 6.36626 5.37898C7.13059 4.6051 8.05734 4.01513 9.14651 3.60908C10.2405 3.20303 11.4777 3 12.8583 3C14.2007 3 15.3758 3.21975 16.3838 3.65924C17.3965 4.09395 18.2421 4.68392 18.9204 5.42914C19.6035 6.16959 20.1147 7.00318 20.4538 7.92994C20.7978 8.85669 20.9698 9.8121 20.9698 10.7962C20.9698 11.4889 20.9363 12.1911 20.8694 12.9029C20.8026 13.6146 20.6616 14.2691 20.4467 14.8662C20.2317 15.4586 19.8997 15.9363 19.4507 16.2994C19.0064 16.6624 18.4045 16.8439 17.6449 16.8439C17.3105 16.8439 16.9427 16.7914 16.5414 16.6863C16.1401 16.5812 15.7843 16.4068 15.4737 16.1632C15.1755 15.9292 14.994 15.618 14.9293 15.2296C14.9248 15.2021 14.9012 15.1815 14.8734 15.1815C14.8508 15.1815 14.8304 15.1952 14.8214 15.2159C14.7066 15.4804 14.5347 15.7316 14.3058 15.9697C14.0717 16.2182 13.7636 16.4164 13.3814 16.5645C13.004 16.7126 12.543 16.7771 11.9984 16.758C11.3774 16.7341 10.8304 16.5955 10.3575 16.3424C9.88457 16.0844 9.48808 15.7357 9.16801 15.2962C8.85273 14.8519 8.61387 14.3384 8.45145 13.7556C8.29381 13.168 8.21499 12.535 8.21499 11.8567C8.21499 11.2118 8.31053 10.6218 8.50161 10.0868C8.69269 9.55175 8.95782 9.0836 9.29699 8.68232C9.64094 8.28105 10.0422 7.96099 10.5008 7.72213C10.9642 7.4785 11.4634 7.32803 11.9984 7.2707C12.4761 7.22293 12.9108 7.24443 13.3026 7.33519C13.6943 7.42118 14.0167 7.55255 14.2699 7.7293C14.5093 7.89186 14.6653 8.0715 14.7382 8.26822C14.7457 8.2885 14.7647 8.30255 14.7863 8.30255C14.8138 8.30255 14.836 8.28031 14.836 8.25288V7.90127C14.836 7.67966 15.0157 7.5 15.2373 7.5H15.5956C16.015 7.5 16.3551 7.84006 16.3551 8.25955V13.9777C16.3551 14.379 16.4674 14.7325 16.6919 15.0382C16.9164 15.3439 17.2436 15.4968 17.6736 15.4968C18.1608 15.4968 18.5335 15.3296 18.7914 14.9952C19.0542 14.6608 19.2333 14.1449 19.3288 13.4475C19.4292 12.75 19.4793 11.8567 19.4793 10.7675C19.4793 10.1274 19.3909 9.49682 19.2142 8.8758C19.0422 8.25 18.7795 7.66481 18.426 7.12022C18.0772 6.57564 17.6354 6.09554 17.1003 5.67994C16.5653 5.26433 15.9371 4.93949 15.2158 4.70541C14.4992 4.46656 13.6847 4.34713 12.7723 4.34713C11.6497 4.34713 10.6441 4.5215 9.75559 4.87022C8.87183 5.21417 8.11945 5.71815 7.49843 6.38217C6.88218 7.0414 6.41164 7.84395 6.0868 8.78981C5.76674 9.73089 5.60671 10.801 5.60671 12C5.60671 13.2182 5.76674 14.3002 6.0868 15.246C6.41164 16.1919 6.88935 16.9896 7.51992 17.6393C8.15527 18.289 8.9411 18.7811 9.87741 19.1154C10.8137 19.4546 11.8933 19.6242 13.1163 19.6242C13.6417 19.6242 14.1601 19.574 14.6712 19.4737C15.1823 19.3734 15.6338 19.2635 16.0255 19.1441C16.0748 19.1291 16.1251 19.1136 16.1754 19.0981C16.5585 18.9797 16.9666 19.1931 17.0834 19.5767C17.1907 19.9293 17.0134 20.3061 16.6613 20.4148C16.4938 20.4666 16.3105 20.5183 16.1115 20.5701C15.6386 20.6943 15.1322 20.797 14.5924 20.8782C14.0573 20.9594 13.5462 21 13.0589 21ZM12.2277 15.2962C12.8679 15.2962 13.3862 15.1672 13.7827 14.9092C14.1792 14.6513 14.4682 14.2619 14.6497 13.7412C14.8312 13.2205 14.922 12.5637 14.922 11.7707C14.922 10.9682 14.8217 10.3424 14.621 9.89331C14.4204 9.44427 14.1242 9.12898 13.7325 8.94745C13.3408 8.76592 12.8583 8.67516 12.2851 8.67516C11.7405 8.67516 11.2747 8.81847 10.8878 9.1051C10.5056 9.38694 10.2118 9.76433 10.0064 10.2373C9.80575 10.7054 9.70543 11.2166 9.70543 11.7707C9.70543 12.3822 9.78664 12.9578 9.94906 13.4976C10.1115 14.0326 10.3766 14.4674 10.7444 14.8018C11.1123 15.1314 11.6067 15.2962 12.2277 15.2962Z" fill="#2E201A" fill-opacity="0.6"/>
</svg>
