<svg width="24" height="24" viewBox="0 0 24 24" fill="none" xmlns="http://www.w3.org/2000/svg">
<path fill-rule="evenodd" clip-rule="evenodd" d="M8.21578 3.39436C8.65155 2.95966 9.2417 2.71517 9.85721 2.71436H14.1429C14.7586 2.71436 15.3491 2.95893 15.7844 3.39429C16.2198 3.82964 16.4644 4.4201 16.4644 5.03578V6.28578H18.9644C20.2458 6.28578 21.2858 7.32578 21.2858 8.60721V18.9644C21.2858 20.2472 20.2458 21.2858 18.9644 21.2858H5.03578C4.4201 21.2858 3.82964 21.0412 3.39429 20.6059C2.95893 20.1705 2.71436 19.58 2.71436 18.9644V8.60721C2.71436 7.32578 3.75436 6.28578 5.03578 6.28578H7.53578V5.03578C7.53578 4.42007 7.78007 3.83007 8.21578 3.39436ZM14.6786 5.03578V6.28578H9.3215V5.03578C9.3215 4.8937 9.37794 4.75744 9.47841 4.65698C9.57887 4.55651 9.71513 4.50007 9.85721 4.50007H14.1429C14.285 4.50007 14.4213 4.55651 14.5217 4.65698C14.6222 4.75744 14.6786 4.8937 14.6786 5.03578ZM5.03578 8.0715H18.9644C19.2601 8.0715 19.5001 8.3115 19.5001 8.60721V18.9644C19.5001 19.1064 19.4436 19.2427 19.3432 19.3432C19.2427 19.4436 19.1064 19.5001 18.9644 19.5001H5.03578C4.8937 19.5001 4.75744 19.4436 4.65698 19.3432C4.55651 19.2427 4.50007 19.1064 4.50007 18.9644V8.60721C4.50007 8.3115 4.74007 8.0715 5.03578 8.0715ZM12.0001 9.85721C12.2842 9.85721 12.5568 9.9701 12.7577 10.171C12.9586 10.372 13.0715 10.6445 13.0715 10.9286V12.7144H14.8572C15.1414 12.7144 15.4139 12.8272 15.6148 13.0282C15.8158 13.2291 15.9286 13.5016 15.9286 13.7858C15.9286 14.0699 15.8158 14.3425 15.6148 14.5434C15.4139 14.7443 15.1414 14.8572 14.8572 14.8572H13.0715V16.6429C13.0715 16.9271 12.9586 17.1996 12.7577 17.4005C12.5568 17.6015 12.2842 17.7144 12.0001 17.7144C11.7159 17.7144 11.4434 17.6015 11.2425 17.4005C11.0415 17.1996 10.9286 16.9271 10.9286 16.6429V14.8572H9.14293C8.85877 14.8572 8.58624 14.7443 8.38531 14.5434C8.18438 14.3425 8.0715 14.0699 8.0715 13.7858C8.0715 13.5016 8.18438 13.2291 8.38531 13.0282C8.58624 12.8272 8.85877 12.7144 9.14293 12.7144H10.9286V10.9286C10.9286 10.6445 11.0415 10.372 11.2425 10.171C11.4434 9.9701 11.7159 9.85721 12.0001 9.85721Z" fill="#9D917D"/>
</svg>
