<svg width="230" height="258" viewBox="0 0 230 258" fill="none" xmlns="http://www.w3.org/2000/svg">
<g clip-path="url(#clip0_28_61)">
<path d="M15.4769 142.46C16.931 145.315 18.7609 147.927 21.2633 149.89C22.8602 151.143 24.5248 152.573 25.28 154.516C26.3546 157.282 25.7121 160.85 26.0653 163.792C26.4749 167.207 27.7073 170.457 29.0863 173.586C32.2764 180.824 37.4428 186.539 44.3264 190.599C53.6937 197.605 68.0584 198.059 78.8385 194.667C82.7237 193.444 86.6164 191.819 90.2348 189.969C97.5392 186.235 104.874 183.819 113.166 183.759C116.135 183.736 119.069 184.044 121.959 184.584C125.329 185.211 128.643 186.021 131.702 187.785C134.137 189.188 136.831 190.145 139.412 191.301C140.663 191.868 141.881 192.532 143.169 192.982C148.806 194.948 154.607 196.033 160.593 196.104C163.696 196.142 166.755 195.718 169.825 195.372C170.539 195.222 171.151 194.821 171.854 194.607C174.578 193.77 177.328 192.948 179.917 191.781C185.67 189.192 190.119 184.888 194.289 180.284C197.773 176.438 200.158 171.924 202.03 167.143C203.905 162.348 205.175 157.323 205.911 152.231C206.696 146.79 205.975 141.938 205.107 136.557C204.788 134.587 204.449 132.493 204.615 130.49C205.054 125.165 205.088 119.945 205.145 114.587C205.171 112.298 204.705 110.069 204.277 107.859C203.927 106.05 202.77 104.568 200.748 104.302C197.596 103.881 194.586 104.639 191.922 106.23C190.881 106.853 190.63 106.613 190.145 105.896C185.516 99.0446 178.23 95.6074 171.425 91.431C162.873 86.1814 155.126 79.0218 146.314 73.971C137.289 68.8002 127.11 65.7908 116.713 65.2917C108.71 64.909 100.827 65.9447 93.0528 67.8771C79.7553 71.183 70.5646 81.9787 59.375 89.0669C52.5627 93.3822 45.0591 96.7781 40.043 103.502C39.8852 103.713 39.5244 103.874 39.2502 103.881C35.4739 103.986 32.7235 106.373 30.454 108.763C27.7111 111.653 24.5285 114.099 22.0824 117.3C19.2794 120.966 15.3529 123.735 13.6733 128.31C12.8129 130.651 12.1741 132.944 12.655 135.432C13.1397 137.949 14.3196 140.197 15.4769 142.46ZM140.911 107.66C142.223 102.951 145.048 102.249 148.569 105.716C151.271 108.377 153.194 111.683 155.43 114.722C156.181 115.743 156.963 116.786 157.376 118.032C157.5 118.411 157.677 118.643 158.019 118.73L158.015 118.733C158.019 118.733 158.026 118.733 158.03 118.733C158.184 118.771 158.368 118.782 158.601 118.76C159.665 118.658 160.724 118.583 161.784 118.535C169.287 118.366 174.649 119.642 177.418 120.523C178.193 121 178.899 121.251 179.568 121.319C181.518 121.521 183.119 120.174 184.982 118.403C188.45 115.097 192.054 111.769 196.461 109.585C198.607 108.523 199.655 108.936 199.948 111.27C200.737 117.615 200.452 124.047 199.655 130.373C199.369 132.625 199.527 134.85 199.82 137.06C199.91 137.428 199.993 137.792 200.057 138.141C200.613 141.192 201.128 144.272 201.041 147.387C201.041 147.541 201.038 147.694 201.038 147.848C201.038 147.95 201.038 148.055 201.034 148.156C200.97 158.775 196.487 170.419 189.04 178.359C188.292 179.222 187.507 180.051 186.669 180.828C184.637 182.716 182.337 184.273 179.913 185.612C176.618 187.432 173.105 188.825 169.498 189.886C169.077 190.01 168.66 190.13 168.235 190.247C165.323 191.042 162.453 191.387 159.616 191.384C155.359 191.376 151.173 190.573 147.006 189.305C146.544 189.162 146.081 189.016 145.616 188.866C144.409 188.468 143.384 187.601 142.253 187.035C142.208 187.012 142.17 186.99 142.132 186.971C142.023 186.903 141.948 186.839 141.899 186.768C141.832 186.678 141.809 186.581 141.813 186.483C141.813 186.457 141.817 186.434 141.821 186.408C141.824 186.382 141.832 186.359 141.836 186.333C141.854 186.258 141.884 186.175 141.918 186.093C141.952 186.01 141.99 185.924 142.023 185.838C142.73 183.946 143.316 182.003 144.12 180.153C144.962 178.213 145.176 176.13 145.747 174.134C146.029 173.151 145.713 172.25 144.898 171.447C143.226 169.796 141.584 168.141 139.634 166.787C136.838 164.85 134.775 162.299 133.592 159.06C133.295 158.254 133.314 157.984 134.246 157.882C135.824 157.706 137.402 157.451 138.95 157.109C139.882 156.903 140.66 156.434 140.524 155.199C140.385 153.938 139.461 154.201 138.702 154.167C137.74 154.126 136.782 154.119 135.827 154.186C135.35 154.22 134.877 154.269 134.4 154.34C134.163 154.377 133.926 154.419 133.689 154.464C133.453 154.513 133.22 154.565 132.983 154.625C131.811 154.569 131.796 153.563 131.491 152.801C130.834 151.162 131.751 150.884 133.043 151.147C134.279 151.398 135.471 151.86 136.703 152.141C137.515 152.329 138.522 152.719 138.942 151.571C139.318 150.543 139.134 149.634 137.992 149.072C136.158 148.163 134.385 147.105 132.322 146.783C132.209 146.764 132.1 146.741 131.991 146.711C131.897 146.685 131.807 146.655 131.724 146.618C131.706 146.61 131.687 146.603 131.672 146.595C131.653 146.587 131.638 146.576 131.619 146.565C131.574 146.542 131.529 146.52 131.491 146.49C131.476 146.482 131.469 146.467 131.454 146.46C131.412 146.43 131.375 146.4 131.341 146.362C131.334 146.355 131.33 146.344 131.322 146.336C131.288 146.295 131.258 146.257 131.236 146.212C131.225 146.19 131.221 146.163 131.213 146.141C131.202 146.103 131.187 146.07 131.18 146.032C131.176 146.01 131.18 145.98 131.18 145.953C131.18 145.908 131.172 145.867 131.18 145.818C131.758 141.916 132.472 138.343 134.065 134.797C134.2 134.448 134.336 134.096 134.479 133.751C136.094 129.844 138.653 126.163 138.709 121.792C138.713 121.578 138.724 121.36 138.732 121.146C138.792 118.977 138.999 116.816 139.341 114.67C139.472 113.852 139.626 113.037 139.792 112.223C139.931 111.54 140.081 110.861 140.242 110.185C140.468 109.337 140.678 108.497 140.911 107.66ZM98.7341 83.5622C98.7867 83.5472 98.8355 83.5284 98.8881 83.5134C103.634 82.0687 109.097 84.7367 111.513 88.8756C112.167 89.9975 112.907 91.0707 113.61 92.1664C114.628 91.3484 115.083 90.1101 115.86 89.1157C117.566 86.9243 119.449 84.7292 122.015 83.7535C125.585 82.4027 129.094 83.262 132.145 85.581C135.846 88.3953 137.112 92.5454 135.873 97.1871C135.099 100.088 133.532 102.407 131.717 104.669C126.93 110.639 120.711 115.015 114.887 119.825C113.302 121.135 112.22 119.867 111.19 118.996C107.838 116.148 104.37 113.435 101.026 110.594C95.9536 106.287 91.749 101.266 90.9374 94.2302C90.3926 89.5848 94.522 84.9281 98.7341 83.5622ZM49.5643 125.184C49.181 120.287 49.3915 115.349 48.5385 110.489C48.5085 110.313 48.4709 110.133 48.4333 109.957C48.3732 109.69 48.3093 109.427 48.2454 109.165C48.1778 108.902 48.1139 108.636 48.0501 108.373C47.9749 108.358 47.8998 108.339 47.8321 108.321C47.8998 108.343 47.9712 108.358 48.0501 108.373C48.0463 107.442 46.363 106.452 48.1215 105.585C51.5708 103.885 55.0539 102.305 58.9767 101.994C63.1549 101.664 67.2844 101.986 71.3988 102.688C79.2555 104.418 85.0007 109 89.0399 115.822C90.8322 118.85 91.9632 122.148 92.7861 125.563C93.8231 129.867 96.3744 131.878 100.748 132.842C101.176 132.936 101.616 133.026 102.056 133.12C102.495 133.214 102.939 133.311 103.378 133.428C103.378 133.428 110.457 134.283 110.957 138.749C112.374 145.3 110.732 150.978 106.632 156.1C105.918 156.989 105.11 157.642 103.833 157.567C102.15 157.466 101.143 156.355 101.511 154.726C101.977 152.674 102.837 150.749 103.142 148.61C103.277 147.664 104.911 146.843 105.975 146.137C107.455 145.154 108.007 143.661 108.654 142.145C108.654 142.145 108.849 141.375 108.898 140.347C108.905 140.19 108.909 140.025 108.909 139.856C108.909 139.773 108.905 139.687 108.905 139.601C108.947 138.632 108.781 137.848 108.458 137.218C108.361 137.03 108.248 136.858 108.124 136.696C108.037 136.584 107.944 136.475 107.846 136.377C104.806 133.255 96.2842 135.938 96.2842 135.942C93.3647 136.846 92.3239 140.343 93.9584 143.537C94.8639 145.308 96.1715 146.76 97.9112 147.679C98.9821 148.246 99.0422 148.873 98.8243 149.901C98.2569 152.58 96.4834 154.07 94.2101 155.387C89.2466 158.261 84.3018 158.584 79.372 155.582C77.0612 154.175 74.6677 152.775 73.3226 150.171C72.7777 149.117 71.5754 148.839 70.5721 149.586C69.7305 150.212 69.0992 151.184 69.6966 152.314C70.1287 153.132 70.4181 154.002 71.2259 154.659C72.0901 155.856 73.037 156.873 74.0214 157.728L74.0252 157.713C74.0252 157.713 79.0038 160.79 81.1944 161.492C83.4939 162.227 82.5395 162.036 82.5395 162.036C83.9035 162.359 84.7865 162.415 84.7865 162.415C87.5069 162.704 90.2611 162.37 92.9739 161.541C93.4849 161.383 93.9734 161.162 94.4581 160.91C94.7024 160.783 94.9428 160.648 95.1833 160.501C95.2171 160.483 95.2509 160.464 95.2848 160.441C95.3561 160.396 95.4313 160.351 95.5027 160.303C95.8296 160.1 96.1527 159.89 96.4721 159.676C96.8065 159.454 97.1409 159.233 97.4753 159.019C97.9525 158.715 99.0873 157.841 99.8388 157.695C100.293 158.381 101.323 159.743 102.458 159.969C102.544 160.573 101.988 161.319 101.372 161.991C101.105 162.419 100.549 162.832 100.278 163.113C99.1549 164.295 97.8774 165.109 96.5097 165.717C96.1189 165.89 95.7206 166.047 95.3148 166.19C95.0443 166.288 94.7662 166.37 94.4882 166.453C91.9895 167.177 89.4232 167.316 87.7962 167.316C80.7172 167.121 73.7434 166.265 67.0251 163.695C65.9618 163.289 64.8646 163.368 64.2596 164.524C63.6359 165.71 63.7824 166.794 65.0074 167.575C68.9376 169.263 73.0408 170.273 77.2979 170.685C78.0983 170.764 78.4702 171.233 78.5942 172.156C79.1128 175.935 79.7778 179.695 80.7999 183.38C81.1606 184.678 81.6039 185.961 82.3817 187.065C82.8777 187.77 82.7237 188.014 82.0661 188.502C80.349 189.774 78.3087 190.115 76.3473 190.506C73.4691 191.076 70.527 191.402 67.5962 191.609C64.0567 191.856 60.6262 191.053 57.237 190.078C54.6293 189.327 52.0029 188.513 49.523 187.504C47.1746 186.543 45.123 184.742 43.1203 183.095C36.8228 177.894 33.0804 171.128 31.2694 163.244C31.0665 162.355 31.1116 161.432 30.9312 160.516C30.6531 159.102 31.9419 159.421 32.4868 159.792C33.6741 160.61 34.9404 161.004 36.3231 161.312C41.824 162.543 46.8928 159.447 48.4897 154.029C49.5718 150.359 50.019 146.681 50.0039 142.861C49.9776 136.963 50.0227 131.056 49.5643 125.184ZM18.3325 130.797C19.4673 128.52 20.6246 126.28 22.3304 124.362C23.6793 122.846 24.9945 121.3 26.3321 119.777C29.2779 116.426 32.3402 113.195 36.1277 110.688C36.2217 110.621 36.3269 110.583 36.4433 110.576C36.4396 110.583 36.4396 110.591 36.4358 110.598C36.7515 110.159 37.1422 109.81 37.5706 109.521C38.0027 109.232 38.4724 109.003 38.942 108.816C42.0457 107.578 44.6834 109.03 44.6909 113.615C44.6947 114.992 44.7247 116.366 44.7698 117.743C44.7961 118.508 44.8262 119.274 44.86 120.039C44.8938 120.808 44.9314 121.581 44.969 122.351C44.9802 122.58 44.9915 122.812 45.0028 123.045C45.093 124.794 45.1907 126.546 45.2771 128.295C45.3184 129.143 45.3485 129.994 45.3748 130.842C45.3785 131.026 45.386 131.206 45.3898 131.39C45.4123 132.212 45.4274 133.034 45.4386 133.856C45.4424 133.998 45.4424 134.137 45.4424 134.28C45.4499 135.019 45.4574 135.758 45.4574 136.497C45.4574 136.666 45.4574 136.835 45.4574 137.004C45.4574 137.777 45.4574 138.554 45.4537 139.327C45.4537 139.428 45.4537 139.533 45.4537 139.634C45.4462 140.839 45.4725 142.359 45.4199 143.976C45.3898 146.257 45.2658 148.396 44.5331 150.449C43.6351 153.402 41.8691 155.668 38.4085 155.668C38.2093 155.668 38.0102 155.665 37.8035 155.653C37.394 155.623 36.9994 155.556 36.6087 155.458C36.3231 155.387 36.0375 155.304 35.7595 155.207C35.7069 155.188 35.658 155.169 35.6054 155.147C35.2673 155.019 34.9329 154.873 34.606 154.711C34.4594 154.636 34.3129 154.561 34.1663 154.483C33.7718 154.272 33.3886 154.04 33.0091 153.803C32.8588 153.71 32.7047 153.612 32.5582 153.514C32.4755 153.462 32.3966 153.409 32.3177 153.357C32.1261 153.229 31.9344 153.102 31.7428 152.974C25.8662 149.045 21.2445 143.957 18.4077 137.428C17.4833 135.304 17.209 133.06 18.3325 130.797Z" fill="#624837"/>
<path d="M73.0257 55.4192C77.6436 59.4493 84.3619 62.1998 90.5166 60.6425C96.4646 59.1378 101.819 54.7512 104.141 49.0776C106.625 43.0062 107.466 36.7247 107.083 30.2556C106.809 25.6514 106.136 21.111 104.126 16.852C102.98 14.4242 101.748 12.0564 100.196 9.88006C97.0395 5.46348 93.252 1.66981 87.6985 0.634143C83.3286 -0.180128 78.8084 -0.619158 74.7091 1.90245C73.2512 2.79928 71.7181 3.57978 70.4444 4.80306C64.1807 10.8107 61.8849 18.4243 61.682 26.7696C61.5581 31.8278 62.2494 36.8073 64.1958 41.6028C66.2962 46.7849 68.7347 51.678 73.0257 55.4192Z" fill="#DBA963"/>
<path d="M132.16 58.8789C149.362 65.9297 162.656 48.6198 164.594 33.3438C166.067 21.7414 161.525 2.20265 147.291 0.499061C141.967 -0.138847 136.624 0.776739 132.401 4.24396C120.719 13.8351 117.555 31.8091 121.331 45.7755C122.966 51.8206 126.122 56.4061 132.16 58.8789Z" fill="#4F7474"/>
<path d="M30.811 77.0518C37.9538 82.5228 50.1843 84.6091 56.0572 76.1775C58.9692 71.9973 60.3068 67.2955 60.1979 62.121C60.0551 55.2728 58.2853 48.935 54.6594 43.1638C51.0786 37.4602 46.1451 32.5183 39.4944 30.6721C33.4675 28.9985 25.7084 30.6308 22.2478 36.2632C17.0663 44.6948 17.4383 55.8732 21.4813 64.6839C23.6568 69.4231 26.4937 73.7422 30.811 77.0518Z" fill="#624837"/>
<path d="M180.24 81.4758C186.594 82.3014 191.836 80.1625 196.66 76.5452C203.191 71.6446 206.148 63.9784 207.568 56.1959C209.65 44.7886 206.091 30.6008 192.095 30.1017C183.705 29.8015 175.822 36.1394 172.147 43.404C168.032 51.5354 164.846 61.1679 168.104 70.2449C170.178 76.0124 173.319 80.5753 180.24 81.4758Z" fill="#7B9CA1"/>
<path d="M139.168 216.356C135.918 211.605 131.003 210.044 125.634 209.737C119.163 209.365 112.663 210.029 106.185 209.459C105.862 209.429 105.689 209.744 105.588 210.044C105.092 210.697 105.227 211.466 105.223 212.194C105.216 226.093 105.216 239.996 105.227 253.895C105.227 254.563 105.05 255.272 105.464 255.899C106.05 256.567 106.508 257.358 107.613 257.325C109.424 257.265 111.239 257.358 113.05 257.283C114.846 257.208 115.838 256.439 115.751 254.379C115.601 250.702 115.706 247.013 115.661 243.332C115.65 242.364 115.868 242.045 116.969 241.895C121.027 241.336 125.156 241.996 129.173 241.159C133.205 240.319 136.692 238.446 139.247 235.118C141.858 231.714 141.963 227.699 141.565 223.741C141.317 221.178 140.682 218.57 139.168 216.356ZM131.412 226.431C130.947 231.853 126.93 233.658 122.586 234.037C120.974 234.18 119.336 233.973 117.717 234.078C116.101 234.184 115.658 233.407 115.688 231.977C115.729 229.793 115.699 227.609 115.699 225.429C115.695 225.429 115.695 225.429 115.691 225.429C115.691 223.185 115.691 220.938 115.691 218.694C115.691 218.135 115.594 217.553 116.48 217.56C119.528 217.583 122.676 217.08 125.596 217.692C129.474 218.506 131.811 221.816 131.412 226.431Z" fill="#624837"/>
<path d="M31.4835 212.99C24.382 206.6 10.6786 209.369 1.88623 209.249C0.266778 209.226 0 209.943 0 211.253C0.0150297 225.849 0.0112723 240.45 0.0300595 255.047C0.0300595 255.674 -0.191629 256.477 0.728942 256.769C0.770274 257.017 0.83415 257.302 1.13474 257.302C3.63344 257.31 6.13589 257.385 8.62707 257.25C9.69042 257.193 10.2277 256.469 10.1902 255.193C10.085 251.452 10.2127 247.707 10.1338 243.966C10.0962 242.225 10.6861 241.463 12.4972 241.527C15.18 241.617 17.8816 241.73 20.5494 241.504C26.5049 241.009 32.979 238.172 35.271 232.127C37.6119 225.973 36.5335 217.534 31.4835 212.99ZM24.4383 231.414C20.5832 234.063 16.1945 233.744 11.8509 233.654C10.998 233.636 10.4494 233.328 10.4645 232.322C10.5321 227.418 10.5621 222.514 10.6072 217.609C12.9707 217.598 15.3416 217.482 17.7013 217.605C19.8806 217.722 22.0449 218.101 23.7996 219.609L23.8935 219.703C24.1039 219.921 24.3106 220.135 24.521 220.352L24.63 220.472C24.9231 220.885 25.2161 221.302 25.5092 221.714C26.9596 225.148 26.2757 228.345 24.4383 231.414Z" fill="#624837"/>
<path d="M174.724 243.336C174.743 239.624 174.645 235.902 173.901 232.277C172.331 224.592 167.371 222.243 160.409 221.711C156.914 221.44 153.547 222.277 150.256 223.26C148.389 223.819 146.626 224.986 145.852 226.851C145.183 228.465 146.431 229.733 147.212 231.133C147.986 232.525 148.573 232.011 149.335 231.478C153.311 228.705 157.448 227.741 162.077 229.913C164.076 230.851 164.677 232.446 164.951 234.36C165.15 235.741 164.715 236.487 163.133 236.356C161.765 236.244 160.378 236.334 159.003 236.334C156.583 236.315 154.122 236.124 151.77 236.743C149.944 237.223 148.02 237.677 146.48 238.844C143.256 241.291 142.076 244.679 142.433 248.611C142.745 252.06 143.658 255.264 147.276 256.728C150.079 257.861 152.946 258.338 156.031 257.741C159.041 257.156 162.163 257.047 164.508 254.713C164.966 254.255 165.229 254.15 165.282 254.886C165.462 257.377 167.104 257.486 169.032 257.317C170.152 257.22 171.301 257.174 172.406 257.332C174.371 257.614 174.754 256.612 174.732 254.964C174.691 251.088 174.709 247.212 174.724 243.336ZM163.978 247.763C162.028 250.034 160.025 252.116 156.779 251.685C153.029 252.371 150.425 248.972 152.112 245.212C152.375 244.623 152.71 244.232 153.224 243.831C156.677 241.125 160.6 242.154 164.421 242.315C164.97 242.337 164.902 242.728 164.959 243.099C165.218 244.784 165.196 246.349 163.978 247.763Z" fill="#624837"/>
<path d="M70.2866 230.739C69.9371 229.853 69.6065 229.129 69.366 228.671C64.8007 219.999 50.8418 218.986 44.1123 225.669C42.0382 227.729 40.3323 229.906 39.5094 232.585C37.7697 238.266 37.7472 243.808 40.5014 249.422C42.6694 253.842 46.1 256.203 50.5149 257.223C53.1827 257.839 55.9632 258.109 58.8527 257.794C62.1029 257.437 65.0863 256.694 67.8593 255.062C69.2983 254.214 71.1771 253.452 70.5158 251.257C70.1701 250.109 69.2871 249.099 68.3026 248.323C67.5699 247.745 66.7884 247.681 65.9542 248.315C65.184 248.897 64.331 249.4 63.4518 249.801C62.1367 250.405 60.6901 250.563 59.2773 250.825C54.3024 251.756 49.2863 248.874 47.7758 243.838C47.5052 242.934 47.6292 242.214 49.0044 242.255C52.4425 242.356 55.8843 242.289 59.3261 242.289C59.3261 242.296 59.3261 242.3 59.3261 242.307C62.7041 242.307 66.082 242.311 69.4562 242.307C73.9388 242.307 71.9022 234.829 70.2866 230.739ZM60.5924 236.6C60.1565 236.593 59.7207 236.6 59.1758 236.6C55.997 236.259 52.7018 236.311 49.4065 236.349C48.3244 236.36 47.8885 236.281 48.1215 234.866C48.6663 231.572 52.3147 227.763 56.7297 228.682C60.0663 229.377 61.8624 230.941 62.55 234.097C63.0385 236.345 62.813 236.634 60.5924 236.6Z" fill="#624837"/>
<path d="M225.63 222.12C221.26 222.041 221.117 221.996 219.881 226.112C218.273 231.471 216.917 236.9 215.451 242.304C215.414 242.435 215.376 242.566 215.342 242.698C214.967 243.666 214.429 244.589 214.512 245.685C214.084 245.737 213.858 245.617 213.772 245.118C213.219 241.97 212.182 238.957 211.198 235.925C210.54 231.564 209.169 227.399 207.797 223.23C207.621 222.694 207.294 222.431 206.723 222.412C204.735 222.352 202.744 222.288 200.76 222.206C199.501 222.153 198.855 222.81 198.46 223.936C196.228 230.334 193.974 237.591 193.158 244.311C193.098 244.799 192.91 245.212 192.456 245.268C191.87 245.343 191.836 244.671 191.734 244.36C191.253 242.863 190.915 241.324 190.487 239.812C189.232 235.388 187.958 230.971 186.692 226.551C186.793 223.579 185.952 222.367 183.4 222.172C181.725 222.045 180.034 222.176 178.347 222.161C176.592 222.142 176.287 223.125 176.697 224.547C177.723 228.116 178.771 231.681 179.835 235.238C181.386 240.42 182.84 245.64 184.576 250.758C185.287 252.848 185.365 255.257 187.128 256.934C189.593 257.707 192.099 257.253 194.59 257.163C196.206 257.103 196.897 256.274 197.34 254.66C198.392 250.822 199.67 247.039 201.045 243.302C201.819 241.201 201.872 238.776 203.619 237.069C205.269 242.439 206.914 247.805 208.564 253.174C209.845 257.336 209.845 257.336 214.102 257.332C219.727 257.332 219.731 257.332 221.305 252.09C221.377 251.857 221.354 251.595 221.373 251.347C221.365 251.351 221.362 251.354 221.354 251.354C222.677 248.319 223.567 245.148 224.383 241.951L224.353 241.989C226.273 237.054 227.734 231.97 229.226 226.896C230.594 222.213 230.579 222.21 225.63 222.12Z" fill="#624837"/>
<path d="M99.5833 250.57C99.3916 249.478 98.9295 248.93 97.6707 249.373C96.0024 249.962 94.2627 250.06 92.5155 249.681C92.3013 249.415 92.0308 249.339 91.6964 249.456C89.6411 248.052 89.5997 245.756 89.4945 243.707C89.2841 239.591 89.4795 235.459 89.3931 231.335C89.3668 230.09 89.829 229.898 90.9111 229.943C92.7861 230.026 94.6685 230.018 96.5435 229.947C97.682 229.902 99.3841 229.932 99.5569 228.761C99.8312 226.874 100.218 224.81 99.2037 222.938C98.9783 222.517 98.5086 222.514 98.0615 222.431C95.7244 221.999 93.3685 221.996 91.0163 222.086C90.0356 222.123 89.7125 221.842 89.7463 220.84C89.8214 218.716 89.7576 216.592 89.7763 214.465C89.7839 213.789 89.7313 213.219 88.9046 213.069C86.5074 212.63 84.0801 212.607 81.6641 212.727C80.6871 212.776 79.9168 213.174 80.0221 214.558C80.1874 216.671 80.0145 218.806 80.0747 220.93C80.1085 222.086 79.635 222.431 78.5266 222.469C76.9936 222.521 75.0247 221.741 74.0365 222.863C73.022 224.007 73.7847 225.973 73.6908 227.579C73.657 228.123 73.6194 228.671 73.8786 229.223C74.1943 229.891 74.5061 230.307 75.3628 230.334C76.8959 230.379 79.0489 229.587 79.8041 230.664C80.5744 231.759 80.0333 233.782 80.0596 235.403C80.0671 235.902 80.0333 236.405 80.0671 236.904C80.4203 241.827 78.9286 246.979 80.3865 251.82C82.502 258.852 90.6969 258.176 96.6224 257.295C100.226 256.758 100.455 256.143 99.8876 252.604C99.7786 251.925 99.7035 251.246 99.5833 250.57Z" fill="#624837"/>
<path d="M139.367 114.662C139.025 116.808 138.818 118.97 138.758 121.139C138.751 121.353 138.739 121.566 138.736 121.784C138.687 125.368 137.154 128.655 135.557 131.818C135.226 132.471 134.896 133.12 134.572 133.762C134.403 134.103 134.242 134.445 134.088 134.786C132.495 138.332 131.781 141.905 131.202 145.807C131.195 145.856 131.198 145.897 131.202 145.942C131.202 145.968 131.198 145.998 131.202 146.021C131.21 146.062 131.225 146.096 131.236 146.13C131.243 146.152 131.247 146.182 131.258 146.201C131.281 146.246 131.311 146.287 131.345 146.325C131.352 146.332 131.356 146.344 131.364 146.351C131.397 146.385 131.435 146.415 131.476 146.449C131.488 146.46 131.499 146.471 131.514 146.479C131.555 146.505 131.6 146.527 131.642 146.554C131.66 146.561 131.675 146.573 131.694 146.584C131.709 146.591 131.732 146.599 131.747 146.606C131.833 146.644 131.923 146.674 132.014 146.7C132.123 146.73 132.232 146.756 132.344 146.771C134.407 147.098 136.181 148.152 138.014 149.06C139.153 149.623 139.341 150.531 138.965 151.559C138.544 152.711 137.537 152.317 136.725 152.13C135.493 151.848 134.302 151.387 133.066 151.135C131.773 150.869 130.856 151.15 131.514 152.79C131.818 153.552 131.833 154.558 133.006 154.614C133.242 154.554 133.475 154.501 133.712 154.453C133.949 154.404 134.185 154.362 134.422 154.329C134.896 154.257 135.373 154.205 135.85 154.175C136.804 154.107 137.763 154.115 138.724 154.156C139.483 154.19 140.408 153.927 140.547 155.188C140.686 156.423 139.904 156.892 138.972 157.098C137.421 157.439 135.846 157.695 134.268 157.871C133.336 157.976 133.317 158.242 133.614 159.049C134.798 162.288 136.861 164.839 139.656 166.775C141.61 168.126 143.248 169.781 144.92 171.436C145.736 172.243 146.048 173.139 145.77 174.123C145.198 176.119 144.984 178.205 144.143 180.141C143.339 181.991 142.752 183.935 142.046 185.826C142.012 185.916 141.975 185.999 141.941 186.082C141.907 186.164 141.877 186.243 141.858 186.322C141.851 186.348 141.847 186.374 141.843 186.397C141.839 186.423 141.836 186.445 141.836 186.472C141.832 186.569 141.854 186.663 141.922 186.757C141.975 186.824 142.05 186.892 142.155 186.96C142.193 186.982 142.23 187.005 142.275 187.023C143.406 187.59 144.432 188.457 145.638 188.855C146.1 189.008 146.562 189.155 147.028 189.294C151.195 190.566 155.381 191.365 159.638 191.372C162.475 191.376 165.342 191.031 168.258 190.235C168.679 190.119 169.1 189.999 169.52 189.875C173.127 188.81 176.641 187.421 179.936 185.601C182.359 184.262 184.659 182.701 186.692 180.817C187.53 180.04 188.315 179.211 189.063 178.348C189.209 178.179 189.36 178.006 189.502 177.834C196.548 169.38 200.523 159.124 201.056 148.145C201.056 148.043 201.056 147.938 201.06 147.837C201.06 147.683 201.064 147.529 201.064 147.376C201.087 143.923 200.297 140.501 199.839 137.049C199.546 134.835 199.388 132.614 199.674 130.362C200.47 124.039 200.756 117.608 199.967 111.259C199.677 108.925 198.625 108.512 196.48 109.574C192.072 111.758 188.469 115.086 185.001 118.392C183.141 120.167 181.537 121.51 179.587 121.308C178.918 121.24 178.211 120.989 177.437 120.512C174.668 119.63 169.306 118.354 161.803 118.523C160.743 118.572 159.68 118.647 158.62 118.748C158.387 118.771 158.203 118.76 158.049 118.722C158.045 118.722 158.038 118.722 158.034 118.722L158.038 118.718C157.692 118.632 157.519 118.399 157.395 118.02C156.986 116.771 156.2 115.732 155.449 114.711C153.209 111.671 151.289 108.369 148.588 105.705C145.067 102.238 142.241 102.943 140.93 107.649C140.697 108.482 140.487 109.322 140.284 110.167C140.122 110.842 139.972 111.525 139.833 112.204C139.652 113.03 139.495 113.844 139.367 114.662ZM190.603 165.815C190.13 166.366 189.882 167.061 188.571 166.445C184.727 164.637 180.654 163.342 176.487 162.37C175.209 162.074 173.684 161.653 172.594 160.854C170.606 159.398 172.335 158.077 174.131 157.935C176.291 157.762 178.44 159.034 180.443 159.668C183.78 160.727 186.97 162.216 189.957 164.04C190.6 164.43 191.313 164.989 190.603 165.815ZM185.238 152.276C188.071 152.411 191.129 151.92 194.128 152.696C195.06 152.937 196.052 153.102 195.837 154.483C195.657 155.638 195.139 156.081 193.88 156.092C187.827 156.141 181.777 156.269 175.728 156.464C174.296 156.509 173.413 156.029 173.244 154.659C173.034 152.963 174.488 152.914 175.577 152.674C178.707 151.987 181.886 152.306 185.238 152.276ZM166.469 142.22C167.27 139.901 168.976 137.811 171.474 137.304C174.251 136.741 177.982 137.995 178.076 141.128C178.208 143.267 176.167 146.591 172.988 146.967C171.407 147.154 169.859 147.409 168.277 146.46C166.263 145.244 165.725 144.381 166.469 142.22ZM152.21 150.786C153.897 150.588 155.922 150.899 157.951 151.162C159.176 151.319 159.319 152.152 159.108 153.094C158.661 155.079 157.155 156.145 155.396 156.749C153.675 157.342 153.067 159.015 154.246 160.46C155.794 162.351 157.921 162.982 160.352 162.258C160.818 162.119 161.258 161.849 161.731 161.777C162.607 161.65 163.666 161.237 164.08 162.494C164.47 163.68 163.809 164.288 162.738 164.693C159.886 165.774 157.001 166.348 154.25 164.614C152.702 163.638 151.327 163.852 149.76 164.366C148.02 164.937 146.239 165.098 144.86 163.481C144.417 162.963 143.617 162.468 144.18 161.642C144.751 160.809 145.589 160.55 146.544 161.076C146.934 161.289 147.419 161.349 147.802 161.462C148.888 161.781 150.155 161.53 150.282 160.13C150.369 159.203 150.617 158.201 150.557 157.282C150.519 157.263 144.533 154.212 147.149 151.364L147.152 151.368C147.336 150.929 147.986 150.79 149.208 150.786C150.087 150.783 150.962 150.786 152.21 150.786ZM142.437 135.244C142.437 135.244 144.646 131.705 147.618 135.244C147.618 135.244 147.618 135.244 147.618 135.248C148.407 135.919 148.873 136.97 149.14 138.479C149.553 140.813 148.295 142.835 146.093 143.728C144.376 144.426 143.128 143.743 142.26 142.471C141.054 140.696 140.877 137.27 142.437 135.244Z" fill="#F4D3A3"/>
<path d="M36.3268 161.312C34.9441 161 33.6778 160.606 32.4905 159.792C31.9457 159.421 30.6569 159.102 30.9349 160.516C31.1153 161.436 31.0664 162.355 31.2731 163.244C33.0842 171.128 36.8228 177.894 43.1278 183.076C45.1305 184.723 47.1858 186.524 49.5305 187.485C52.0066 188.498 54.6331 189.309 57.2445 190.059C60.6299 191.035 64.0642 191.834 67.6037 191.59C70.5345 191.387 73.4766 191.057 76.3548 190.487C78.3162 190.1 80.3564 189.755 82.0736 188.483C82.7274 187.999 82.8852 187.755 82.3892 187.046C81.6152 185.943 81.1718 184.659 80.8073 183.361C79.7816 179.676 79.1165 175.92 78.6017 172.138C78.474 171.214 78.102 170.742 77.3054 170.667C73.0482 170.254 68.9451 169.244 65.0148 167.556C63.7937 166.775 63.6471 165.687 64.2671 164.505C64.8758 163.349 65.9692 163.271 67.0326 163.676C73.7509 166.246 80.7247 167.102 87.8037 167.297C89.4344 167.297 92.0007 167.158 94.4957 166.434C94.7737 166.348 95.048 166.265 95.3223 166.171C95.7281 166.029 96.1264 165.871 96.5172 165.698C97.8849 165.094 99.1624 164.28 100.286 163.094C100.579 162.783 100.992 162.393 101.379 161.972C101.995 161.301 102.552 160.554 102.465 159.95C101.327 159.725 100.297 158.359 99.8463 157.676C99.0948 157.826 97.96 158.696 97.4828 159C97.1484 159.214 96.814 159.436 96.4796 159.657C96.1602 159.871 95.8371 160.081 95.5102 160.284C95.4388 160.329 95.3636 160.378 95.2922 160.423C95.2584 160.441 95.2246 160.46 95.1908 160.483C94.9503 160.625 94.7098 160.76 94.4656 160.892C93.9847 161.147 93.4924 161.368 92.9814 161.522C90.2686 162.355 87.5144 162.689 84.794 162.396C84.794 162.396 83.911 162.34 82.547 162.017C82.547 162.017 83.5014 162.209 81.2019 161.473C79.0113 160.772 74.0327 157.695 74.0327 157.695L74.0214 157.713C73.037 156.858 72.0901 155.841 71.2259 154.644C70.418 153.987 70.1287 153.117 69.6966 152.299C69.0992 151.165 69.7304 150.197 70.5721 149.571C71.5753 148.824 72.7777 149.098 73.3225 150.156C74.6677 152.76 77.0612 154.16 79.372 155.567C84.298 158.569 89.2428 158.246 94.2101 155.372C96.4796 154.059 98.2569 152.565 98.8242 149.886C99.0422 148.858 98.982 148.231 97.9112 147.664C96.1752 146.741 94.8639 145.293 93.9583 143.522C92.3239 140.328 93.3647 136.831 96.2842 135.927L96.2804 135.923C96.2804 135.923 104.802 133.244 107.842 136.366C107.94 136.467 108.034 136.572 108.12 136.685C108.244 136.846 108.361 137.019 108.455 137.206C108.778 137.837 108.943 138.621 108.902 139.589C108.905 139.676 108.905 139.762 108.905 139.844C108.905 140.013 108.902 140.178 108.894 140.336C108.845 141.364 108.65 142.133 108.65 142.133C108.004 143.649 107.451 145.147 105.971 146.126C104.904 146.831 103.273 147.653 103.138 148.599C102.833 150.738 101.973 152.663 101.507 154.715C101.139 156.34 102.146 157.454 103.829 157.556C105.107 157.631 105.915 156.982 106.628 156.089C110.728 150.97 112.37 145.293 110.953 138.737C110.453 134.272 103.374 133.417 103.374 133.417C102.935 133.3 102.491 133.203 102.052 133.109C101.612 133.015 101.173 132.929 100.744 132.831C96.3706 131.867 93.8193 129.856 92.7823 125.552C91.9594 122.137 90.8284 118.838 89.0361 115.81C84.9969 108.988 79.2518 104.407 71.395 102.677C67.2806 101.975 63.1512 101.649 58.9729 101.983C55.0501 102.294 51.567 103.874 48.1177 105.574C46.3554 106.441 48.0425 107.431 48.0463 108.362C48.1101 108.628 48.174 108.891 48.2417 109.154C48.3093 109.416 48.3732 109.683 48.4295 109.945C48.4671 110.122 48.5047 110.298 48.5347 110.478C49.3877 115.338 49.1773 120.276 49.5605 125.173C50.0189 131.045 49.9738 136.951 50.0039 142.846C50.0227 146.666 49.5718 150.344 48.4897 154.013C46.8965 159.447 41.8277 162.543 36.3268 161.312ZM86.8906 124.141C88.4161 124.246 89.874 125.994 89.7575 127.578C89.5396 130.561 88.4988 131.735 86.188 131.615C85.1547 131.563 83.7644 129.42 83.8358 127.991C83.9748 125.124 84.8729 123.998 86.8906 124.141ZM65.214 125.188C67.9532 125.356 69.5162 126.899 69.4975 129.78C69.4824 132.512 67.3332 134.752 64.8608 134.614C62.8881 134.505 60.8103 132.111 60.9268 129.795C61.047 127.462 62.2794 125.011 65.214 125.188Z" fill="#F4D3A3"/>
<path d="M31.739 152.97C31.9307 153.098 32.1223 153.225 32.3139 153.353C32.3928 153.406 32.4755 153.458 32.5544 153.511C32.7047 153.608 32.855 153.706 33.0053 153.8C33.3848 154.036 33.768 154.265 34.1626 154.479C34.3091 154.558 34.4557 154.633 34.6022 154.708C34.9291 154.869 35.2635 155.015 35.6017 155.143C35.6543 155.162 35.7031 155.184 35.7557 155.203C36.0338 155.304 36.3156 155.387 36.6049 155.454C36.9957 155.548 37.3902 155.62 37.7998 155.65C38.0027 155.665 38.2056 155.668 38.4047 155.665C40.2308 155.65 41.8165 154.937 42.9437 153.409C43.6651 152.434 44.1686 151.451 44.5256 150.441C45.262 148.389 45.3823 146.25 45.4123 143.968C45.4198 143.499 45.4198 143.026 45.4236 142.542C45.4311 141.469 45.4386 140.392 45.4461 139.319C45.4499 138.546 45.4499 137.769 45.4499 136.996C45.4499 136.827 45.4499 136.659 45.4499 136.49C45.4461 135.751 45.4424 135.011 45.4349 134.272C45.4349 134.13 45.4311 133.991 45.4311 133.848C45.4198 133.026 45.4048 132.205 45.3823 131.383C45.3785 131.199 45.371 131.019 45.3672 130.835C45.3409 129.987 45.3109 129.135 45.2695 128.287C45.1831 126.538 45.0854 124.79 44.9953 123.037C44.984 122.809 44.9727 122.576 44.9614 122.343C44.9239 121.574 44.8863 120.801 44.8525 120.032C44.8187 119.266 44.7886 118.501 44.7623 117.735C44.7172 116.362 44.6871 114.985 44.6834 113.608C44.6759 109.022 42.0382 107.57 38.9345 108.808C38.4648 108.996 37.9952 109.221 37.563 109.514C37.1347 109.803 36.7439 110.152 36.4283 110.591C36.3757 110.763 36.3006 110.872 36.1202 110.681C32.3365 113.187 29.2742 116.422 26.3246 119.769C24.9869 121.293 23.6681 122.839 22.3229 124.355C20.617 126.272 19.456 128.512 18.325 130.79C17.2015 133.053 17.4758 135.297 18.3964 137.417C21.2408 143.953 25.8662 149.042 31.739 152.97Z" fill="#D78C5B"/>
<path d="M36.4396 110.598C36.4433 110.591 36.4433 110.583 36.4471 110.576C36.3306 110.583 36.2254 110.621 36.1315 110.688C36.3118 110.88 36.387 110.771 36.4396 110.598Z" fill="#DBA963"/>
<path d="M147.156 151.364C144.537 154.209 150.523 157.259 150.56 157.278C150.624 158.197 150.372 159.196 150.286 160.126C150.155 161.526 148.892 161.777 147.806 161.458C147.423 161.346 146.938 161.289 146.547 161.072C145.593 160.546 144.755 160.809 144.184 161.638C143.62 162.46 144.421 162.955 144.864 163.477C146.243 165.094 148.024 164.933 149.764 164.363C151.334 163.845 152.706 163.631 154.254 164.61C157.004 166.344 159.89 165.77 162.742 164.689C163.813 164.284 164.474 163.676 164.083 162.49C163.67 161.233 162.61 161.646 161.735 161.773C161.262 161.841 160.822 162.115 160.356 162.254C157.925 162.978 155.798 162.348 154.25 160.456C153.07 159.012 153.679 157.338 155.4 156.745C157.162 156.141 158.665 155.075 159.112 153.09C159.323 152.152 159.18 151.319 157.955 151.158C155.926 150.895 153.901 150.584 152.214 150.783C150.97 150.783 150.091 150.783 149.215 150.783C147.99 150.786 147.34 150.925 147.156 151.364Z" fill="#624837"/>
<path d="M168.28 146.456C169.862 147.406 171.41 147.15 172.992 146.963C175.656 146.648 178.031 144.062 178.046 141.349C178.061 138.437 174.92 137.068 172.368 137.195C169.456 137.338 167.379 139.593 166.473 142.22C165.725 144.381 166.263 145.244 168.28 146.456Z" fill="#624837"/>
<path d="M189.961 164.04C187.248 162.385 184.366 161 181.356 159.969C179.237 159.241 177.088 158.265 174.826 158.104C173.74 158.025 171.628 158.126 171.839 159.668C172.072 161.379 175.232 162.077 176.49 162.37C180.657 163.342 184.73 164.637 188.574 166.445C189.886 167.061 190.134 166.366 190.607 165.815C191.313 164.989 190.6 164.43 189.961 164.04Z" fill="#624837"/>
<path d="M146.093 143.728C148.295 142.835 149.553 140.809 149.14 138.479C148.873 136.966 148.407 135.919 147.618 135.248C147.618 135.248 147.618 135.248 147.618 135.244C144.646 131.705 142.437 135.244 142.437 135.244C140.877 137.27 141.054 140.7 142.264 142.475C143.128 143.743 144.376 144.426 146.093 143.728Z" fill="#624837"/>
<path d="M173.248 154.655C173.417 156.025 174.3 156.505 175.731 156.46C181.781 156.265 187.83 156.137 193.884 156.089C195.142 156.077 195.661 155.638 195.841 154.479C196.055 153.098 195.063 152.933 194.132 152.693C191.133 151.916 188.075 152.407 185.241 152.272C181.886 152.306 178.707 151.983 175.585 152.67C174.491 152.91 173.037 152.959 173.248 154.655Z" fill="#624837"/>
<path d="M64.8646 134.614C67.3369 134.752 69.4862 132.512 69.5012 129.78C69.5163 126.899 67.9532 125.353 65.2178 125.188C62.2832 125.007 61.0508 127.458 60.9305 129.796C60.8103 132.111 62.8881 134.505 64.8646 134.614Z" fill="#624837"/>
<path d="M86.188 131.615C88.5026 131.735 89.5434 130.557 89.7576 127.578C89.874 125.994 88.4162 124.246 86.8906 124.141C84.8691 123.998 83.9749 125.128 83.8321 127.991C83.7645 129.42 85.1547 131.563 86.188 131.615Z" fill="#624837"/>
</g>
<defs>
<clipPath id="clip0_28_61">
<rect width="230" height="258" fill="white"/>
</clipPath>
</defs>
</svg>
