<svg width="261" height="189" viewBox="0 0 261 189" fill="none" xmlns="http://www.w3.org/2000/svg">
<path d="M126.18 188.95C122.2 188.93 114.57 188.31 107.55 183.99C104.52 182.12 100.77 181.43 97.3601 180.17C81.0801 174.18 74.2901 162.84 77.7801 145.94C80.6301 132.17 74.2401 121.04 68.6401 109.64C66.9701 106.24 65.0001 108.22 64.3501 110.62C62.7001 116.68 61.4401 122.84 59.9001 128.93C58.6401 133.91 57.1601 138.85 54.3201 143.21C51.4101 147.67 48.5701 148.46 44.4701 144.96C33.2901 135.43 23.7601 124.27 14.2201 113.15C8.20009 106.14 3.68009 98.23 1.61009 89.13C0.880086 85.9 0.150086 82.61 0.0300862 79.32C-0.289914 70.97 2.34009 64.07 10.1301 59.69C22.2601 52.87 31.8301 43.41 39.2201 31.55C43.3101 24.99 48.4301 19.33 56.6801 17.69C58.7201 17.29 60.6101 16.99 62.5301 17.79C67.1801 19.74 70.6801 18.14 74.1201 14.8C82.8101 6.35005 94.3201 4.27005 105.53 2.27005C127.26 -1.61995 148.85 -0.519954 170.12 5.79005C176.78 7.77005 182.83 10.7 187.78 15.59C190.51 18.28 193.33 19.29 197.18 18.03C203.93 15.83 209.5 18.72 214.49 22.96C218.08 26 220.75 29.86 223.24 33.8C229.4 43.53 237.16 51.87 247.24 57.35C261.7 65.21 262.56 74.8201 259.42 88.91C257.2 98.86 251.98 107.37 245.31 114.91C237.47 123.77 229.31 132.34 221.28 141.02C220.6 141.75 219.87 142.44 219.12 143.1C212.32 149.09 208.65 148.29 204.8 139.94C201.09 131.88 199.86 123.14 197.72 114.64C197.14 112.32 197.53 108.41 194.26 108.23C191.49 108.08 191.22 111.76 190.1 113.85C188.53 116.77 187.46 119.94 186 122.92C182.23 130.54 181.77 138.43 183.46 146.67C186.32 160.6 180.83 171.83 168.3 178.15C151.34 186.7 143.36 188.95 126.18 188.95Z" fill="#9D917D"/>
</svg>
