<svg width="24" height="24" viewBox="0 0 24 24" fill="none" xmlns="http://www.w3.org/2000/svg">
<g clip-path="url(#clip0_269_602)">
<path d="M12.4395 0.75L12.4736 0.759766C12.7119 0.827294 12.9251 0.870305 13.1836 0.9375C13.4285 1.00118 13.6837 1.08032 13.9326 1.20508C15.9097 2.19626 16.7297 4.57143 15.7598 6.56152C15.7201 6.6429 15.6921 6.70611 15.6719 6.75488C15.727 6.75879 15.7994 6.76302 15.8955 6.76367C16.5646 6.76753 17.2537 6.759 17.9297 6.76758C18.355 6.77316 18.7212 6.87884 19.002 7.11523C19.2828 7.35182 19.4475 7.69348 19.5225 8.11035C20.152 11.6073 20.7774 15.1049 21.4053 18.6016C21.4443 18.8191 21.4841 19.0331 21.5293 19.2451C21.6169 19.6563 21.6034 20.0277 21.4453 20.3535C21.2873 20.679 21.0021 20.921 20.6221 21.1113C20.5547 21.1454 20.5009 21.1785 20.4219 21.2207L20.3662 21.25H3.98438L3.93555 21.2275C3.44546 21.0071 3.08963 20.7634 2.90137 20.3975C2.71374 20.0328 2.72039 19.6008 2.81543 19.0771C3.45894 15.5306 4.09329 11.9816 4.73145 8.43359C4.76309 8.25698 4.79668 8.06672 4.8457 7.87988V7.87891C4.93311 7.5493 5.09797 7.27214 5.3418 7.07617C5.58624 6.87975 5.89301 6.77827 6.23828 6.77148C6.9789 6.75667 7.73752 6.76864 8.46875 6.76172C8.5169 6.76127 8.57063 6.76438 8.60449 6.76562C8.62372 6.76633 8.64004 6.76475 8.6543 6.76465C8.64597 6.74996 8.63627 6.73318 8.62793 6.7168V6.71582C7.35867 4.23597 8.70042 1.43506 11.4297 0.857422L11.4307 0.856445C11.5474 0.831926 11.6504 0.797426 11.791 0.758789L11.8242 0.75H12.4395ZM13.8721 2.41309C12.7833 1.58014 11.1352 1.69125 10.1055 2.68359C9.59506 3.17622 9.29933 3.7811 9.22559 4.49023V4.49121C9.10841 5.60459 9.58874 6.47668 10.4424 7.25391L10.6562 7.44824L10.4326 7.63184C10.2213 7.80481 10.0071 7.81491 9.87305 7.80957L9.76855 7.80469C8.68155 7.8094 7.60776 7.80272 6.52539 7.81055C6.23905 7.8124 6.10623 7.85875 6.0293 7.92188C5.9521 7.98533 5.8822 8.10575 5.82324 8.38086C5.78331 8.56808 5.74794 8.75793 5.71387 8.94824C5.10082 12.3685 4.48825 15.7887 3.87598 19.209C3.78993 19.6894 3.83565 19.9023 3.92188 20.0068C4.00779 20.1108 4.20631 20.1955 4.69141 20.2002C4.76813 20.201 4.84544 20.2012 4.92383 20.2012C9.0401 20.2012 13.1572 20.201 17.2734 20.2002C18.1248 20.2002 18.9649 20.2114 19.8066 20.1904C20.1608 20.1813 20.3261 20.0969 20.4033 20.001C20.4812 19.9039 20.5288 19.7222 20.4668 19.375L18.501 8.42285C18.446 8.11746 18.3758 7.99033 18.2979 7.9248C18.2197 7.85922 18.0813 7.81209 17.7686 7.81055H17.7676C17.2344 7.80782 16.701 7.80762 16.167 7.80762C15.633 7.80762 15.0983 7.80743 14.5635 7.80469C14.4761 7.80424 14.1721 7.86897 13.8975 7.61328L13.7012 7.43066L13.8975 7.24707C14.6255 6.56934 15.1115 5.7946 15.1123 4.8291C15.113 3.82936 14.6741 3.02648 13.8721 2.41309Z" fill="#9D917D" stroke="#9D917D" stroke-width="0.5"/>
<path d="M13.1455 12.2003C13.7435 11.8551 14.5171 11.8254 15.2803 12.0538C15.5402 12.1314 15.7667 12.2824 15.9355 12.5001C16.0223 12.612 16.0862 12.7416 16.0967 12.8771C16.1047 12.9815 16.0807 13.0843 16.0195 13.1788L15.9453 13.2706C15.8207 13.398 15.6775 13.4426 15.5352 13.4161C15.3999 13.3909 15.2803 13.3043 15.1855 13.2003C14.9675 12.9619 14.7233 12.8267 14.4072 12.8175C14.0968 12.8083 13.8398 12.8844 13.6416 13.0314C13.4434 13.1783 13.2962 13.402 13.2158 13.7013C13.1276 14.0313 13.1295 14.3591 13.2031 14.6954V14.6964C13.2995 15.1392 13.5593 15.4504 13.8867 15.5997C14.2143 15.7491 14.6204 15.7407 15.0195 15.5236C15.1127 15.4727 15.1792 15.4188 15.2197 15.3575C15.2585 15.2987 15.2788 15.2259 15.2666 15.1271C15.26 15.0748 15.2452 15.0413 15.2295 15.0187C15.214 14.9964 15.1938 14.98 15.167 14.9669C15.1372 14.9524 15.1023 14.9424 15.0615 14.9357L14.9219 14.921C14.8054 14.9113 14.6655 14.8931 14.5576 14.8273C14.5012 14.7928 14.4522 14.7444 14.4199 14.6779C14.3879 14.6118 14.3759 14.5343 14.3818 14.4464C14.3879 14.3585 14.4114 14.2836 14.4531 14.2228C14.495 14.1619 14.5506 14.1211 14.6104 14.0939C14.7245 14.0419 14.8638 14.0361 14.9736 14.0323C15.1973 14.0245 15.4205 14.0245 15.6426 14.0284C15.7705 14.0308 15.8785 14.0375 15.9668 14.0558C16.0563 14.0744 16.1349 14.1073 16.1953 14.1681C16.2556 14.2288 16.2882 14.3071 16.3066 14.3966C16.3249 14.4851 16.3314 14.5935 16.334 14.7218L16.335 15.0743C16.335 15.3027 16.3287 15.4897 16.3037 15.6437C16.2786 15.7987 16.2337 15.9269 16.1523 16.0343C16.0708 16.1418 15.9591 16.2206 15.8154 16.2872C15.673 16.3533 15.4931 16.4098 15.2705 16.4718C14.7558 16.6155 14.2276 16.6226 13.7129 16.5099C12.7061 16.2891 12.0444 15.3303 12.0938 14.1935C12.1368 13.2063 12.5429 12.5483 13.1455 12.2003Z" fill="#9D917D" stroke="#9D917D" stroke-width="0.2"/>
<path d="M11.2566 12.0049L11.3689 12.0186C11.4096 12.0247 11.4524 12.0331 11.4919 12.0479C11.5565 12.072 11.6158 12.1121 11.6599 12.1768L11.699 12.251L11.7195 12.3252C11.7398 12.4459 11.6905 12.5465 11.6316 12.624L11.5603 12.7061C11.3104 12.9673 11.0591 13.2403 10.7878 13.4893C10.6681 13.5993 10.6197 13.6937 10.613 13.7812C10.6063 13.8707 10.6408 13.9757 10.7332 14.1094C11.0895 14.6253 11.4258 15.1558 11.7595 15.6836V15.6846C11.7884 15.7303 11.8182 15.7695 11.8552 15.8242C11.8891 15.8743 11.9252 15.9323 11.948 15.9951C11.9713 16.0595 11.9823 16.1329 11.9626 16.2109C11.948 16.2689 11.9178 16.3238 11.8728 16.376L11.822 16.4277C11.6905 16.5479 11.489 16.5748 11.3103 16.5439C11.1296 16.5128 10.9429 16.4178 10.8357 16.2578C10.5734 15.8658 10.3423 15.4505 10.1042 15.0508C10.0026 14.8803 9.92515 14.7598 9.85913 14.6807C9.79114 14.5992 9.75171 14.5833 9.72925 14.582C9.70607 14.5807 9.6634 14.5927 9.58374 14.666C9.50664 14.7371 9.41194 14.8473 9.28687 15.0039L9.28784 15.0049C9.17616 15.145 9.14485 15.3025 9.14038 15.4922C9.13694 15.6347 9.13667 15.787 9.12378 15.9385L9.1062 16.0889C9.08763 16.2076 9.0369 16.3112 8.95386 16.3867C8.87054 16.4624 8.76112 16.5037 8.63745 16.5098C8.50817 16.5159 8.39834 16.4797 8.31226 16.4072C8.2281 16.3364 8.17384 16.2371 8.14038 16.1299C8.11056 16.0335 8.09649 15.9303 8.09644 15.8311L8.09546 12.7051C8.09549 12.6093 8.10585 12.5036 8.13745 12.4053L8.17065 12.3193C8.20922 12.2373 8.26304 12.1671 8.33374 12.1152C8.42883 12.0454 8.54618 12.0153 8.67847 12.0244H8.67944C8.81147 12.0339 8.91922 12.0858 8.99487 12.1719C9.06901 12.2564 9.10488 12.366 9.11304 12.4805C9.12459 12.639 9.12827 12.7979 9.13062 12.9541C9.13297 13.1111 9.13403 13.2653 9.14136 13.4189L9.14038 13.54C9.13955 13.5774 9.1402 13.6096 9.14526 13.6396C9.15122 13.675 9.16487 13.7105 9.19604 13.748C9.58349 13.3327 9.97596 12.9187 10.3611 12.4971C10.5735 12.2646 10.8167 11.9589 11.2566 12.0049Z" fill="#9D917D" stroke="#9D917D" stroke-width="0.2"/>
<path d="M12.147 2.87683C13.2067 2.86461 14.0605 3.7175 14.063 4.78601C14.0653 5.86381 13.2343 6.71307 12.1704 6.71472C11.0923 6.71624 10.2677 5.88863 10.27 4.80945C10.2725 3.7192 11.0739 2.89003 12.147 2.87683ZM12.1323 3.67078C11.4832 3.67457 11.0174 4.14943 11.0181 4.81531C11.0181 5.44098 11.5273 5.95309 12.1597 5.95886C12.7515 5.96456 13.3002 5.42145 13.311 4.80847C13.3224 4.1876 12.7929 3.66788 12.1323 3.67078Z" fill="#9D917D" stroke="#9D917D" stroke-width="0.2"/>
</g>
<defs>
<clipPath id="clip0_269_602">
<rect width="24" height="24" fill="white"/>
</clipPath>
</defs>
</svg>
